<svg xmlns="http://www.w3.org/2000/svg" xmlns:xlink="http://www.w3.org/1999/xlink" width="500" zoomAndPan="magnify" viewBox="0 0 375 374.999991" height="500" preserveAspectRatio="xMidYMid meet" version="1.0"><defs><clipPath id="205f31ff60"><path d="M 10.59375 179 L 159 179 L 159 273 L 10.59375 273 Z M 10.59375 179 " clip-rule="nonzero"/></clipPath><clipPath id="f6a1eae4ce"><path d="M 216 102 L 364.59375 102 L 364.59375 196 L 216 196 Z M 216 102 " clip-rule="nonzero"/></clipPath></defs><path fill="#8b5e3c" d="M 279.339844 36.183594 C 270.960938 64.351562 256.664062 86.738281 238.019531 102.449219 C 231.351562 108.089844 224.117188 112.875 216.382812 116.742188 C 194.507812 127.746094 168.703125 131.546875 140.628906 127.234375 C 141.140625 118.601562 140.617188 109.9375 139.066406 101.34375 C 194.960938 109.628906 238.910156 81.566406 256.867188 25.109375 C 265.730469 29.808594 270.246094 32.03125 279.339844 36.183594 " fill-opacity="1" fill-rule="nonzero"/><path fill="#8b5e3c" d="M 140.628906 127.234375 C 135.199219 126.402344 129.6875 125.269531 124.097656 123.8125 C 125.230469 113.886719 125.648438 108.886719 126.210938 98.851562 C 130.5625 99.890625 134.847656 100.726562 139.066406 101.34375 C 140.617188 109.9375 141.140625 118.601562 140.628906 127.234375 " fill-opacity="1" fill-rule="nonzero"/><path fill="#8b5e3c" d="M 204.6875 36.078125 C 211.25 47.710938 207.148438 62.457031 195.515625 69.023438 C 183.886719 75.585938 169.136719 71.484375 162.570312 59.855469 C 156.007812 48.222656 160.113281 33.476562 171.742188 26.910156 C 183.371094 20.34375 198.121094 24.449219 204.6875 36.078125 " fill-opacity="1" fill-rule="nonzero"/><path fill="#24a620" d="M 140.628906 127.234375 C 139.214844 151.6875 129.605469 175.933594 111.835938 198.082031 C 104.617188 193.328125 96.855469 189.445312 88.625 186.480469 C 123.746094 142.214844 121.417969 90.148438 81.496094 46.355469 C 90.011719 41.03125 94.1875 38.246094 102.339844 32.4375 C 122.535156 53.777344 134.78125 77.351562 139.066406 101.34375 C 140.617188 109.9375 141.140625 118.601562 140.628906 127.234375 " fill-opacity="1" fill-rule="nonzero"/><path fill="#24a620" d="M 64.917969 97.03125 C 78.269531 97.160156 88.992188 108.089844 88.863281 121.441406 C 88.734375 134.796875 77.804688 145.515625 64.449219 145.386719 C 51.097656 145.257812 40.375 134.328125 40.503906 120.976562 C 40.632812 107.625 51.5625 96.902344 64.917969 97.03125 " fill-opacity="1" fill-rule="nonzero"/><g clip-path="url(#205f31ff60)"><path fill="#fdb620" d="M 158.800781 258.433594 C 151.066406 262.3125 143.835938 267.082031 137.164062 272.726562 C 116.378906 220.1875 70.113281 196.167969 12.222656 208.847656 C 11.859375 198.8125 11.535156 193.796875 10.59375 183.839844 C 39.179688 177.027344 65.707031 178.199219 88.625 186.480469 C 96.855469 189.445312 104.617188 193.328125 111.835938 198.082031 C 132.300781 211.527344 148.496094 231.960938 158.800781 258.433594 " fill-opacity="1" fill-rule="nonzero"/></g><path fill="#fdb620" d="M 68.625 285.015625 C 64.445312 285.015625 60.214844 283.929688 56.355469 281.652344 C 44.851562 274.863281 41.035156 260.042969 47.820312 248.542969 C 52.332031 240.898438 60.394531 236.652344 68.667969 236.652344 C 72.847656 236.652344 77.078125 237.734375 80.9375 240.011719 C 92.4375 246.800781 96.257812 261.621094 89.46875 273.125 C 84.957031 280.761719 76.898438 285.015625 68.625 285.015625 " fill-opacity="1" fill-rule="nonzero"/><path fill="#752e9f" d="M 236.105469 273.832031 C 180.210938 265.574219 136.277344 293.632812 118.316406 350.078125 C 109.441406 345.363281 104.941406 343.15625 95.84375 338.992188 C 104.226562 310.824219 118.519531 288.433594 137.164062 272.726562 C 143.835938 267.082031 151.066406 262.3125 158.800781 258.433594 C 180.679688 247.4375 206.480469 243.628906 234.542969 247.953125 C 234.042969 256.585938 234.570312 265.238281 236.105469 273.832031 " fill-opacity="1" fill-rule="nonzero"/><path fill="#752e9f" d="M 170.496094 339.097656 C 163.929688 327.46875 168.035156 312.722656 179.664062 306.15625 C 191.296875 299.589844 206.046875 303.699219 212.609375 315.324219 C 219.175781 326.957031 215.070312 341.703125 203.441406 348.269531 C 191.8125 354.832031 177.0625 350.730469 170.496094 339.097656 " fill-opacity="1" fill-rule="nonzero"/><path fill="#db0f10" d="M 293.675781 328.820312 C 285.171875 334.15625 280.996094 336.945312 272.84375 342.738281 C 252.652344 321.398438 240.40625 297.824219 236.105469 273.832031 C 234.570312 265.238281 234.042969 256.585938 234.542969 247.953125 C 235.960938 223.5 245.5625 199.253906 263.347656 177.09375 C 270.570312 181.847656 278.328125 185.726562 286.546875 188.691406 C 251.425781 232.960938 253.769531 285.039062 293.675781 328.820312 " fill-opacity="1" fill-rule="nonzero"/><path fill="#db0f10" d="M 310.265625 278.144531 C 296.910156 278.019531 286.1875 267.089844 286.320312 253.738281 C 286.445312 240.382812 297.378906 229.664062 310.730469 229.789062 C 324.085938 229.921875 334.804688 240.851562 334.679688 254.203125 C 334.546875 267.554688 323.617188 278.277344 310.265625 278.144531 " fill-opacity="1" fill-rule="nonzero"/><g clip-path="url(#f6a1eae4ce)"><path fill="#0172bb" d="M 364.59375 191.332031 C 336.003906 198.164062 309.476562 196.976562 286.546875 188.691406 C 278.328125 185.726562 270.570312 181.847656 263.347656 177.09375 C 242.867188 163.648438 226.691406 143.210938 216.382812 116.742188 C 224.117188 112.875 231.351562 108.089844 238.019531 102.449219 C 258.820312 155 305.070312 179.007812 362.964844 166.34375 C 363.316406 176.363281 363.652344 181.378906 364.59375 191.332031 " fill-opacity="1" fill-rule="nonzero"/></g><path fill="#0172bb" d="M 327.359375 126.640625 C 320.570312 138.140625 305.742188 141.960938 294.242188 135.171875 C 282.742188 128.382812 278.925781 113.558594 285.714844 102.054688 C 292.5 90.554688 307.328125 86.734375 318.828125 93.527344 C 330.328125 100.316406 334.148438 115.140625 327.359375 126.640625 " fill-opacity="1" fill-rule="nonzero"/></svg>